<?xml version="1.0" encoding="UTF-8" standalone="no"?>
<!DOCTYPE svg PUBLIC "-//W3C//DTD SVG 1.1//EN"
 "http://www.w3.org/Graphics/SVG/1.1/DTD/svg11.dtd">
<!-- Generated by graphviz version 2.38.0 (20140413.2041)
 -->
<!-- Title: %3 Pages: 1 -->
<svg width="2498pt" height="396pt"
 viewBox="0.00 0.00 2498.12 395.74" xmlns="http://www.w3.org/2000/svg" xmlns:xlink="http://www.w3.org/1999/xlink">
<g id="graph0" class="graph" transform="scale(1 1) rotate(0) translate(4 391.74)">
<title>%3</title>
<polygon fill="white" stroke="none" points="-4,4 -4,-391.74 2494.12,-391.74 2494.12,4 -4,4"/>
<!-- node_start -->
<g id="node1" class="node"><title>node_start</title>
<polygon fill="none" stroke="black" points="1220.78,-387.74 1179.78,-387.74 1179.78,-346.74 1220.78,-346.74 1220.78,-387.74"/>
<text text-anchor="middle" x="1200.28" y="-363.54" font-family="Times New Roman,serif" font-size="14.00">start</text>
</g>
<!-- xor_split_0 -->
<g id="node23" class="node"><title>xor_split_0</title>
<polygon fill="yellow" stroke="black" points="1200.28,-310.74 1173.28,-282.74 1200.28,-254.74 1227.28,-282.74 1200.28,-310.74"/>
<text text-anchor="middle" x="1200.28" y="-278.34" font-family="Times New Roman,serif" font-size="18.00">×</text>
</g>
<!-- node_start&#45;&gt;xor_split_0 -->
<g id="edge41" class="edge"><title>node_start&#45;&gt;xor_split_0</title>
<path fill="none" stroke="black" d="M1200.28,-346.689C1200.28,-339.017 1200.28,-329.946 1200.28,-321.114"/>
<polygon fill="black" stroke="black" points="1203.78,-320.954 1200.28,-310.954 1196.78,-320.954 1203.78,-320.954"/>
</g>
<!-- node_end -->
<g id="node2" class="node"><title>node_end</title>
<polygon fill="none" stroke="black" points="1218.78,-37 1181.78,-37 1181.78,-0 1218.78,-0 1218.78,-37"/>
<text text-anchor="middle" x="1200.28" y="-14.8" font-family="Times New Roman,serif" font-size="14.00">end</text>
</g>
<!-- task_0 -->
<g id="node3" class="node"><title>task_0</title>
<ellipse fill="white" stroke="black" cx="57.2756" cy="-191.87" rx="57.0522" ry="26.7407"/>
<text text-anchor="middle" x="57.2756" y="-195.67" font-family="Times New Roman,serif" font-size="14.00">infoD</text>
<text text-anchor="middle" x="57.2756" y="-180.67" font-family="Times New Roman,serif" font-size="14.00">surveillance</text>
</g>
<!-- xor_join_1 -->
<g id="node24" class="node"><title>xor_join_1</title>
<polygon fill="yellow" stroke="black" points="1200.28,-129 1173.28,-101 1200.28,-73 1227.28,-101 1200.28,-129"/>
<text text-anchor="middle" x="1200.28" y="-96.6" font-family="Times New Roman,serif" font-size="18.00">×</text>
</g>
<!-- task_0&#45;&gt;xor_join_1 -->
<g id="edge40" class="edge"><title>task_0&#45;&gt;xor_join_1</title>
<path fill="none" stroke="black" d="M98.1185,-172.805C106.617,-169.701 115.624,-166.876 124.276,-165 329.191,-120.577 999.897,-105.651 1163.86,-102.622"/>
<polygon fill="black" stroke="black" points="1164.42,-106.112 1174.35,-102.431 1164.29,-99.1133 1164.42,-106.112"/>
</g>
<!-- task_1 -->
<g id="node4" class="node"><title>task_1</title>
<ellipse fill="orangered" stroke="black" cx="175.276" cy="-191.87" rx="42.3529" ry="26.7407"/>
<text text-anchor="middle" x="175.276" y="-195.67" font-family="Times New Roman,serif" font-size="14.00">delivery</text>
<text text-anchor="middle" x="175.276" y="-180.67" font-family="Times New Roman,serif" font-size="14.00">http(s)</text>
</g>
<!-- task_1&#45;&gt;xor_join_1 -->
<g id="edge33" class="edge"><title>task_1&#45;&gt;xor_join_1</title>
<path fill="none" stroke="black" d="M205.828,-173.178C212.686,-169.921 220.071,-166.941 227.276,-165 409.042,-116.032 1009.4,-104.598 1163.81,-102.44"/>
<polygon fill="black" stroke="black" points="1164.19,-105.935 1174.14,-102.3 1164.1,-98.936 1164.19,-105.935"/>
</g>
<!-- task_2 -->
<g id="node5" class="node"><title>task_2</title>
<ellipse fill="orangered" stroke="black" cx="293.276" cy="-191.87" rx="57.0522" ry="26.7407"/>
<text text-anchor="middle" x="293.276" y="-195.67" font-family="Times New Roman,serif" font-size="14.00">exfil</text>
<text text-anchor="middle" x="293.276" y="-180.67" font-family="Times New Roman,serif" font-size="14.00">surveillance</text>
</g>
<!-- task_2&#45;&gt;xor_join_1 -->
<g id="edge35" class="edge"><title>task_2&#45;&gt;xor_join_1</title>
<path fill="none" stroke="black" d="M334.143,-172.915C342.64,-169.803 351.639,-166.946 360.276,-165 517.393,-129.589 1025.98,-108.475 1164.92,-103.27"/>
<polygon fill="black" stroke="black" points="1165.15,-106.764 1175.01,-102.896 1164.89,-99.769 1165.15,-106.764"/>
</g>
<!-- task_3 -->
<g id="node6" class="node"><title>task_3</title>
<ellipse fill="orangered" stroke="black" cx="406.276" cy="-191.87" rx="37.4533" ry="26.7407"/>
<text text-anchor="middle" x="406.276" y="-195.67" font-family="Times New Roman,serif" font-size="14.00">exfil</text>
<text text-anchor="middle" x="406.276" y="-180.67" font-family="Times New Roman,serif" font-size="14.00">http(s)</text>
</g>
<!-- task_3&#45;&gt;xor_join_1 -->
<g id="edge22" class="edge"><title>task_3&#45;&gt;xor_join_1</title>
<path fill="none" stroke="black" d="M433.634,-172.991C439.572,-169.832 445.97,-166.938 452.276,-165 587.98,-123.294 1034.49,-106.945 1164.48,-103.001"/>
<polygon fill="black" stroke="black" points="1164.78,-106.493 1174.67,-102.697 1164.58,-99.4963 1164.78,-106.493"/>
</g>
<!-- task_4 -->
<g id="node7" class="node"><title>task_4</title>
<ellipse fill="orangered" stroke="black" cx="503.276" cy="-191.87" rx="41.9398" ry="26.7407"/>
<text text-anchor="middle" x="503.276" y="-195.67" font-family="Times New Roman,serif" font-size="14.00">dManip</text>
<text text-anchor="middle" x="503.276" y="-180.67" font-family="Times New Roman,serif" font-size="14.00">http(s)</text>
</g>
<!-- task_4&#45;&gt;xor_join_1 -->
<g id="edge31" class="edge"><title>task_4&#45;&gt;xor_join_1</title>
<path fill="none" stroke="black" d="M533.532,-173.217C540.18,-170 547.317,-167.026 554.276,-165 670.602,-131.131 1047.31,-109.709 1164.88,-103.721"/>
<polygon fill="black" stroke="black" points="1165.31,-107.204 1175.12,-103.206 1164.96,-100.213 1165.31,-107.204"/>
</g>
<!-- task_5 -->
<g id="node8" class="node"><title>task_5</title>
<ellipse fill="dodgerblue" stroke="black" cx="620.276" cy="-191.87" rx="57.0522" ry="26.7407"/>
<text text-anchor="middle" x="620.276" y="-195.67" font-family="Times New Roman,serif" font-size="14.00">rPrivEsc</text>
<text text-anchor="middle" x="620.276" y="-180.67" font-family="Times New Roman,serif" font-size="14.00">surveillance</text>
</g>
<!-- task_5&#45;&gt;xor_join_1 -->
<g id="edge29" class="edge"><title>task_5&#45;&gt;xor_join_1</title>
<path fill="none" stroke="black" d="M661.578,-173.102C669.963,-170.015 678.809,-167.12 687.276,-165 863.198,-120.952 1081.09,-107.187 1165.03,-103.344"/>
<polygon fill="black" stroke="black" points="1165.22,-106.84 1175.05,-102.904 1164.91,-99.8463 1165.22,-106.84"/>
</g>
<!-- task_6 -->
<g id="node9" class="node"><title>task_6</title>
<ellipse fill="orangered" stroke="black" cx="753.276" cy="-191.87" rx="57.0522" ry="26.7407"/>
<text text-anchor="middle" x="753.276" y="-195.67" font-family="Times New Roman,serif" font-size="14.00">delivery</text>
<text text-anchor="middle" x="753.276" y="-180.67" font-family="Times New Roman,serif" font-size="14.00">surveillance</text>
</g>
<!-- task_6&#45;&gt;xor_join_1 -->
<g id="edge36" class="edge"><title>task_6&#45;&gt;xor_join_1</title>
<path fill="none" stroke="black" d="M795.011,-173.251C803.282,-170.188 811.976,-167.265 820.276,-165 945.507,-130.827 1099.31,-112.256 1166.35,-105.274"/>
<polygon fill="black" stroke="black" points="1166.75,-108.751 1176.35,-104.252 1166.04,-101.787 1166.75,-108.751"/>
</g>
<!-- task_7 -->
<g id="node10" class="node"><title>task_7</title>
<ellipse fill="dodgerblue" stroke="black" cx="886.276" cy="-191.87" rx="57.0522" ry="26.7407"/>
<text text-anchor="middle" x="886.276" y="-195.67" font-family="Times New Roman,serif" font-size="14.00">ACE</text>
<text text-anchor="middle" x="886.276" y="-180.67" font-family="Times New Roman,serif" font-size="14.00">surveillance</text>
</g>
<!-- task_7&#45;&gt;xor_join_1 -->
<g id="edge27" class="edge"><title>task_7&#45;&gt;xor_join_1</title>
<path fill="none" stroke="black" d="M928.244,-173.517C936.164,-170.5 944.426,-167.525 952.276,-165 1028.75,-140.406 1120.92,-119.124 1168.46,-108.745"/>
<polygon fill="black" stroke="black" points="1169.42,-112.118 1178.46,-106.581 1167.94,-105.276 1169.42,-112.118"/>
</g>
<!-- task_8 -->
<g id="node11" class="node"><title>task_8</title>
<ellipse fill="orangered" stroke="black" cx="1004.28" cy="-191.87" rx="43.2674" ry="26.7407"/>
<text text-anchor="middle" x="1004.28" y="-195.67" font-family="Times New Roman,serif" font-size="14.00">delivery</text>
<text text-anchor="middle" x="1004.28" y="-180.67" font-family="Times New Roman,serif" font-size="14.00">wireless</text>
</g>
<!-- task_8&#45;&gt;xor_join_1 -->
<g id="edge38" class="edge"><title>task_8&#45;&gt;xor_join_1</title>
<path fill="none" stroke="black" d="M1037.17,-174.202C1043.48,-171.088 1050.06,-167.902 1056.28,-165 1096.08,-146.403 1142.78,-126.277 1171.96,-113.903"/>
<polygon fill="black" stroke="black" points="1173.66,-116.983 1181.5,-109.864 1170.93,-110.536 1173.66,-116.983"/>
</g>
<!-- task_9 -->
<g id="node12" class="node"><title>task_9</title>
<ellipse fill="orangered" stroke="black" cx="1131.28" cy="-191.87" rx="65.5227" ry="26.7407"/>
<text text-anchor="middle" x="1131.28" y="-195.67" font-family="Times New Roman,serif" font-size="14.00">delivery</text>
<text text-anchor="middle" x="1131.28" y="-180.67" font-family="Times New Roman,serif" font-size="14.00">hostingServer</text>
</g>
<!-- task_9&#45;&gt;xor_join_1 -->
<g id="edge32" class="edge"><title>task_9&#45;&gt;xor_join_1</title>
<path fill="none" stroke="black" d="M1150.5,-166.115C1160.41,-153.346 1172.43,-137.859 1182.18,-125.306"/>
<polygon fill="black" stroke="black" points="1185.14,-127.198 1188.51,-117.153 1179.61,-122.905 1185.14,-127.198"/>
</g>
<!-- task_10 -->
<g id="node13" class="node"><title>task_10</title>
<ellipse fill="orangered" stroke="black" cx="1270.28" cy="-191.87" rx="55.3091" ry="26.7407"/>
<text text-anchor="middle" x="1270.28" y="-195.67" font-family="Times New Roman,serif" font-size="14.00">exfil</text>
<text text-anchor="middle" x="1270.28" y="-180.67" font-family="Times New Roman,serif" font-size="14.00">unassigned</text>
</g>
<!-- task_10&#45;&gt;xor_join_1 -->
<g id="edge34" class="edge"><title>task_10&#45;&gt;xor_join_1</title>
<path fill="none" stroke="black" d="M1251.15,-166.586C1240.92,-153.601 1228.4,-137.704 1218.34,-124.931"/>
<polygon fill="black" stroke="black" points="1221.07,-122.74 1212.13,-117.05 1215.57,-127.072 1221.07,-122.74"/>
</g>
<!-- task_11 -->
<g id="node14" class="node"><title>task_11</title>
<ellipse fill="orangered" stroke="black" cx="1398.28" cy="-191.87" rx="55.3091" ry="26.7407"/>
<text text-anchor="middle" x="1398.28" y="-195.67" font-family="Times New Roman,serif" font-size="14.00">delivery</text>
<text text-anchor="middle" x="1398.28" y="-180.67" font-family="Times New Roman,serif" font-size="14.00">unassigned</text>
</g>
<!-- task_11&#45;&gt;xor_join_1 -->
<g id="edge28" class="edge"><title>task_11&#45;&gt;xor_join_1</title>
<path fill="none" stroke="black" d="M1358.68,-173.099C1320.06,-155.765 1262.3,-129.839 1228.24,-114.551"/>
<polygon fill="black" stroke="black" points="1229.44,-111.255 1218.89,-110.353 1226.58,-117.641 1229.44,-111.255"/>
</g>
<!-- task_12 -->
<g id="node15" class="node"><title>task_12</title>
<ellipse fill="orangered" stroke="black" cx="1537.28" cy="-191.87" rx="65.5227" ry="26.7407"/>
<text text-anchor="middle" x="1537.28" y="-195.67" font-family="Times New Roman,serif" font-size="14.00">exfil</text>
<text text-anchor="middle" x="1537.28" y="-180.67" font-family="Times New Roman,serif" font-size="14.00">hostingServer</text>
</g>
<!-- task_12&#45;&gt;xor_join_1 -->
<g id="edge23" class="edge"><title>task_12&#45;&gt;xor_join_1</title>
<path fill="none" stroke="black" d="M1489.08,-173.482C1480.21,-170.501 1471,-167.548 1462.28,-165 1380.1,-141.008 1281.54,-119.127 1232,-108.596"/>
<polygon fill="black" stroke="black" points="1232.71,-105.168 1222.2,-106.525 1231.26,-112.017 1232.71,-105.168"/>
</g>
<!-- task_13 -->
<g id="node16" class="node"><title>task_13</title>
<ellipse fill="orangered" stroke="black" cx="1678.28" cy="-191.87" rx="57.0522" ry="26.7407"/>
<text text-anchor="middle" x="1678.28" y="-195.67" font-family="Times New Roman,serif" font-size="14.00">resHJ</text>
<text text-anchor="middle" x="1678.28" y="-180.67" font-family="Times New Roman,serif" font-size="14.00">surveillance</text>
</g>
<!-- task_13&#45;&gt;xor_join_1 -->
<g id="edge24" class="edge"><title>task_13&#45;&gt;xor_join_1</title>
<path fill="none" stroke="black" d="M1636.85,-173.022C1628.8,-170.017 1620.36,-167.173 1612.28,-165 1475.36,-128.188 1306.67,-110.82 1235.06,-104.697"/>
<polygon fill="black" stroke="black" points="1235.07,-101.186 1224.81,-103.842 1234.49,-108.162 1235.07,-101.186"/>
</g>
<!-- task_14 -->
<g id="node17" class="node"><title>task_14</title>
<ellipse fill="orangered" stroke="black" cx="1819.28" cy="-191.87" rx="65.5227" ry="26.7407"/>
<text text-anchor="middle" x="1819.28" y="-195.67" font-family="Times New Roman,serif" font-size="14.00">dManip</text>
<text text-anchor="middle" x="1819.28" y="-180.67" font-family="Times New Roman,serif" font-size="14.00">hostingServer</text>
</g>
<!-- task_14&#45;&gt;xor_join_1 -->
<g id="edge37" class="edge"><title>task_14&#45;&gt;xor_join_1</title>
<path fill="none" stroke="black" d="M1772.12,-172.868C1762.98,-169.877 1753.41,-167.078 1744.28,-165 1555.61,-122.072 1323.12,-107.582 1235.71,-103.445"/>
<polygon fill="black" stroke="black" points="1235.69,-99.941 1225.54,-102.98 1235.37,-106.934 1235.69,-99.941"/>
</g>
<!-- task_15 -->
<g id="node18" class="node"><title>task_15</title>
<ellipse fill="orangered" stroke="black" cx="1960.28" cy="-191.87" rx="57.0522" ry="26.7407"/>
<text text-anchor="middle" x="1960.28" y="-195.67" font-family="Times New Roman,serif" font-size="14.00">dManip</text>
<text text-anchor="middle" x="1960.28" y="-180.67" font-family="Times New Roman,serif" font-size="14.00">surveillance</text>
</g>
<!-- task_15&#45;&gt;xor_join_1 -->
<g id="edge30" class="edge"><title>task_15&#45;&gt;xor_join_1</title>
<path fill="none" stroke="black" d="M1919.66,-172.883C1911.39,-169.813 1902.66,-166.981 1894.28,-165 1648.12,-106.832 1341.15,-101.654 1236.88,-101.711"/>
<polygon fill="black" stroke="black" points="1236.85,-98.2109 1226.86,-101.733 1236.87,-105.211 1236.85,-98.2109"/>
</g>
<!-- task_16 -->
<g id="node19" class="node"><title>task_16</title>
<ellipse fill="orangered" stroke="black" cx="2073.28" cy="-191.87" rx="37.4533" ry="26.7407"/>
<text text-anchor="middle" x="2073.28" y="-195.67" font-family="Times New Roman,serif" font-size="14.00">resHJ</text>
<text text-anchor="middle" x="2073.28" y="-180.67" font-family="Times New Roman,serif" font-size="14.00">http(s)</text>
</g>
<!-- task_16&#45;&gt;xor_join_1 -->
<g id="edge26" class="edge"><title>task_16&#45;&gt;xor_join_1</title>
<path fill="none" stroke="black" d="M2046.05,-173.352C2039.78,-170.042 2032.97,-166.995 2026.28,-165 1874.82,-119.862 1374.64,-105.794 1236.12,-102.716"/>
<polygon fill="black" stroke="black" points="1236.11,-99.2152 1226.04,-102.497 1235.96,-106.214 1236.11,-99.2152"/>
</g>
<!-- task_17 -->
<g id="node20" class="node"><title>task_17</title>
<ellipse fill="orangered" stroke="black" cx="2179.28" cy="-191.87" rx="50.8235" ry="26.7407"/>
<text text-anchor="middle" x="2179.28" y="-195.67" font-family="Times New Roman,serif" font-size="14.00">exfil</text>
<text text-anchor="middle" x="2179.28" y="-180.67" font-family="Times New Roman,serif" font-size="14.00">broadcast</text>
</g>
<!-- task_17&#45;&gt;xor_join_1 -->
<g id="edge25" class="edge"><title>task_17&#45;&gt;xor_join_1</title>
<path fill="none" stroke="black" d="M2142.82,-172.838C2135.2,-169.732 2127.1,-166.897 2119.28,-165 1946.99,-123.246 1383.86,-106.562 1236.07,-102.841"/>
<polygon fill="black" stroke="black" points="1235.85,-99.3347 1225.76,-102.586 1235.67,-106.333 1235.85,-99.3347"/>
</g>
<!-- task_18 -->
<g id="node21" class="node"><title>task_18</title>
<ellipse fill="orangered" stroke="black" cx="2316.28" cy="-191.87" rx="67.7647" ry="26.7407"/>
<text text-anchor="middle" x="2316.28" y="-195.67" font-family="Times New Roman,serif" font-size="14.00">dDestruct</text>
<text text-anchor="middle" x="2316.28" y="-180.67" font-family="Times New Roman,serif" font-size="14.00">remoteAccess</text>
</g>
<!-- task_18&#45;&gt;xor_join_1 -->
<g id="edge39" class="edge"><title>task_18&#45;&gt;xor_join_1</title>
<path fill="none" stroke="black" d="M2268.33,-172.603C2258.82,-169.597 2248.83,-166.86 2239.28,-165 2040.74,-126.334 1394.95,-107.118 1235.91,-102.902"/>
<polygon fill="black" stroke="black" points="1235.82,-99.398 1225.73,-102.635 1235.64,-106.396 1235.82,-99.398"/>
</g>
<!-- task_19 -->
<g id="node22" class="node"><title>task_19</title>
<ellipse fill="orangered" stroke="black" cx="2446.28" cy="-191.87" rx="43.6818" ry="26.7407"/>
<text text-anchor="middle" x="2446.28" y="-195.67" font-family="Times New Roman,serif" font-size="14.00">netDOS</text>
<text text-anchor="middle" x="2446.28" y="-180.67" font-family="Times New Roman,serif" font-size="14.00">http(s)</text>
</g>
<!-- task_19&#45;&gt;xor_join_1 -->
<g id="edge21" class="edge"><title>task_19&#45;&gt;xor_join_1</title>
<path fill="none" stroke="black" d="M2414.84,-172.984C2407.93,-169.783 2400.51,-166.874 2393.28,-165 2166.62,-106.297 1411.84,-102.136 1236.77,-101.972"/>
<polygon fill="black" stroke="black" points="1236.54,-98.4723 1226.54,-101.967 1236.54,-105.472 1236.54,-98.4723"/>
</g>
<!-- xor_split_0&#45;&gt;task_0 -->
<g id="edge3" class="edge"><title>xor_split_0&#45;&gt;task_0</title>
<path fill="none" stroke="black" d="M1174.35,-281.309C1030.96,-278.759 333.899,-264.184 124.276,-218.74 118.868,-217.568 113.322,-216.025 107.848,-214.274"/>
<polygon fill="black" stroke="black" points="108.713,-210.871 98.1185,-210.936 106.441,-217.492 108.713,-210.871"/>
</g>
<!-- xor_split_0&#45;&gt;task_1 -->
<g id="edge15" class="edge"><title>xor_split_0&#45;&gt;task_1</title>
<path fill="none" stroke="black" d="M1174.14,-281.44C1038.46,-279.67 413.404,-268.883 227.276,-218.74 223.223,-217.648 219.113,-216.228 215.073,-214.614"/>
<polygon fill="black" stroke="black" points="216.392,-211.371 205.828,-210.562 213.582,-217.782 216.392,-211.371"/>
</g>
<!-- xor_split_0&#45;&gt;task_2 -->
<g id="edge9" class="edge"><title>xor_split_0&#45;&gt;task_2</title>
<path fill="none" stroke="black" d="M1175.01,-280.844C1052.72,-276.355 521.487,-255.073 360.276,-218.74 354.878,-217.524 349.338,-215.952 343.868,-214.184"/>
<polygon fill="black" stroke="black" points="344.738,-210.781 334.143,-210.825 342.452,-217.398 344.738,-210.781"/>
</g>
<!-- xor_split_0&#45;&gt;task_3 -->
<g id="edge18" class="edge"><title>xor_split_0&#45;&gt;task_3</title>
<path fill="none" stroke="black" d="M1174.67,-281.043C1059.84,-277.694 591.795,-261.618 452.276,-218.74 449.123,-217.771 445.947,-216.563 442.817,-215.202"/>
<polygon fill="black" stroke="black" points="444.159,-211.963 433.634,-210.749 441.104,-218.262 444.159,-211.963"/>
</g>
<!-- xor_split_0&#45;&gt;task_4 -->
<g id="edge13" class="edge"><title>xor_split_0&#45;&gt;task_4</title>
<path fill="none" stroke="black" d="M1175.12,-280.534C1071.08,-275.356 674.234,-253.667 554.276,-218.74 550.47,-217.632 546.611,-216.241 542.808,-214.681"/>
<polygon fill="black" stroke="black" points="544.089,-211.419 533.532,-210.523 541.226,-217.807 544.089,-211.419"/>
</g>
<!-- xor_split_0&#45;&gt;task_5 -->
<g id="edge19" class="edge"><title>xor_split_0&#45;&gt;task_5</title>
<path fill="none" stroke="black" d="M1175.05,-280.836C1099.8,-277.675 870.722,-264.672 687.276,-218.74 681.984,-217.415 676.544,-215.787 671.161,-213.999"/>
<polygon fill="black" stroke="black" points="672.173,-210.645 661.578,-210.638 669.856,-217.251 672.173,-210.645"/>
</g>
<!-- xor_split_0&#45;&gt;task_6 -->
<g id="edge8" class="edge"><title>xor_split_0&#45;&gt;task_6</title>
<path fill="none" stroke="black" d="M1176.35,-279.488C1115.85,-273.427 952.207,-254.741 820.276,-218.74 815.088,-217.325 809.747,-215.652 804.451,-213.849"/>
<polygon fill="black" stroke="black" points="805.606,-210.544 795.011,-210.49 803.259,-217.139 805.606,-210.544"/>
</g>
<!-- xor_split_0&#45;&gt;task_7 -->
<g id="edge5" class="edge"><title>xor_split_0&#45;&gt;task_7</title>
<path fill="none" stroke="black" d="M1178.46,-277.16C1134.95,-267.817 1034.53,-245.194 952.276,-218.74 947.492,-217.202 942.556,-215.496 937.637,-213.715"/>
<polygon fill="black" stroke="black" points="938.837,-210.427 928.244,-210.223 936.397,-216.989 938.837,-210.427"/>
</g>
<!-- xor_split_0&#45;&gt;task_8 -->
<g id="edge12" class="edge"><title>xor_split_0&#45;&gt;task_8</title>
<path fill="none" stroke="black" d="M1181.5,-273.876C1153.89,-262.23 1100.78,-239.529 1056.28,-218.74 1052.98,-217.198 1049.57,-215.577 1046.16,-213.928"/>
<polygon fill="black" stroke="black" points="1047.69,-210.781 1037.17,-209.539 1044.62,-217.071 1047.69,-210.781"/>
</g>
<!-- xor_split_0&#45;&gt;task_9 -->
<g id="edge7" class="edge"><title>xor_split_0&#45;&gt;task_9</title>
<path fill="none" stroke="black" d="M1188.57,-266.665C1179.89,-255.487 1167.73,-239.824 1156.84,-225.802"/>
<polygon fill="black" stroke="black" points="1159.52,-223.535 1150.62,-217.782 1153.99,-227.828 1159.52,-223.535"/>
</g>
<!-- xor_split_0&#45;&gt;task_10 -->
<g id="edge17" class="edge"><title>xor_split_0&#45;&gt;task_10</title>
<path fill="none" stroke="black" d="M1212.15,-266.665C1221.08,-255.322 1233.66,-239.359 1244.83,-225.18"/>
<polygon fill="black" stroke="black" points="1247.76,-227.108 1251.2,-217.086 1242.26,-222.776 1247.76,-227.108"/>
</g>
<!-- xor_split_0&#45;&gt;task_11 -->
<g id="edge2" class="edge"><title>xor_split_0&#45;&gt;task_11</title>
<path fill="none" stroke="black" d="M1218.55,-273.539C1248.01,-260.316 1306.98,-233.847 1349.35,-214.832"/>
<polygon fill="black" stroke="black" points="1350.96,-217.942 1358.65,-210.654 1348.1,-211.556 1350.96,-217.942"/>
</g>
<!-- xor_split_0&#45;&gt;task_12 -->
<g id="edge16" class="edge"><title>xor_split_0&#45;&gt;task_12</title>
<path fill="none" stroke="black" d="M1222.2,-277.215C1267.44,-267.716 1374.26,-244.438 1462.28,-218.74 1467.87,-217.108 1473.66,-215.309 1479.43,-213.444"/>
<polygon fill="black" stroke="black" points="1480.68,-216.715 1489.08,-210.258 1478.49,-210.068 1480.68,-216.715"/>
</g>
<!-- xor_split_0&#45;&gt;task_13 -->
<g id="edge14" class="edge"><title>xor_split_0&#45;&gt;task_13</title>
<path fill="none" stroke="black" d="M1224.81,-279.898C1289.27,-274.652 1468.33,-257.442 1612.28,-218.74 1617.2,-217.416 1622.26,-215.843 1627.28,-214.136"/>
<polygon fill="black" stroke="black" points="1628.61,-217.379 1636.85,-210.718 1626.25,-210.787 1628.61,-217.379"/>
</g>
<!-- xor_split_0&#45;&gt;task_14 -->
<g id="edge11" class="edge"><title>xor_split_0&#45;&gt;task_14</title>
<path fill="none" stroke="black" d="M1225.54,-280.76C1303.65,-277.317 1547.74,-263.459 1744.28,-218.74 1750.13,-217.409 1756.16,-215.782 1762.14,-213.998"/>
<polygon fill="black" stroke="black" points="1763.62,-217.201 1772.12,-210.872 1761.53,-210.522 1763.62,-217.201"/>
</g>
<!-- xor_split_0&#45;&gt;task_15 -->
<g id="edge1" class="edge"><title>xor_split_0&#45;&gt;task_15</title>
<path fill="none" stroke="black" d="M1226.86,-282.007C1319.99,-282.379 1639.67,-278.906 1894.28,-218.74 1899.52,-217.502 1904.89,-215.931 1910.21,-214.178"/>
<polygon fill="black" stroke="black" points="1911.38,-217.474 1919.66,-210.858 1909.06,-210.87 1911.38,-217.474"/>
</g>
<!-- xor_split_0&#45;&gt;task_16 -->
<g id="edge10" class="edge"><title>xor_split_0&#45;&gt;task_16</title>
<path fill="none" stroke="black" d="M1226.04,-281.243C1348.34,-278.658 1870.87,-265.054 2026.28,-218.74 2029.83,-217.68 2033.42,-216.323 2036.94,-214.788"/>
<polygon fill="black" stroke="black" points="2038.57,-217.889 2046.05,-210.388 2035.53,-211.586 2038.57,-217.889"/>
</g>
<!-- xor_split_0&#45;&gt;task_17 -->
<g id="edge6" class="edge"><title>xor_split_0&#45;&gt;task_17</title>
<path fill="none" stroke="black" d="M1225.76,-281.154C1355.43,-277.997 1942.68,-261.539 2119.28,-218.74 2123.92,-217.614 2128.67,-216.157 2133.35,-214.509"/>
<polygon fill="black" stroke="black" points="2134.72,-217.731 2142.82,-210.902 2132.23,-211.189 2134.72,-217.731"/>
</g>
<!-- xor_split_0&#45;&gt;task_18 -->
<g id="edge4" class="edge"><title>xor_split_0&#45;&gt;task_18</title>
<path fill="none" stroke="black" d="M1225.73,-281.106C1365.04,-277.495 2036.17,-258.294 2239.28,-218.74 2245.54,-217.519 2252,-215.921 2258.39,-214.117"/>
<polygon fill="black" stroke="black" points="2259.76,-217.362 2268.33,-211.137 2257.75,-210.656 2259.76,-217.362"/>
</g>
<!-- xor_split_0&#45;&gt;task_19 -->
<g id="edge20" class="edge"><title>xor_split_0&#45;&gt;task_19</title>
<path fill="none" stroke="black" d="M1226.54,-281.773C1380.01,-281.754 2161.87,-278.672 2393.28,-218.74 2397.35,-217.686 2401.47,-216.304 2405.54,-214.728"/>
<polygon fill="black" stroke="black" points="2407.02,-217.901 2414.84,-210.756 2404.27,-211.464 2407.02,-217.901"/>
</g>
<!-- xor_join_1&#45;&gt;node_end -->
<g id="edge42" class="edge"><title>xor_join_1&#45;&gt;node_end</title>
<path fill="none" stroke="black" d="M1200.28,-72.7464C1200.28,-64.6273 1200.28,-55.7179 1200.28,-47.549"/>
<polygon fill="black" stroke="black" points="1203.78,-47.3655 1200.28,-37.3656 1196.78,-47.3656 1203.78,-47.3655"/>
</g>
</g>
</svg>
